<svg
	width="24"
	height="24"
	viewBox="0 0 24 24"
	fill="none"
	xmlns="http://www.w3.org/2000/svg"
>
	<g clip-path="url(#clip0_102_2)">
		<path
			d="M3.778 19.778C3.778 21.004 4.774 22 6 22C7.226 22 8.222 21.004 8.222 19.778V16.444C8.222 15.218 7.226 14.222 6 14.222V7.556C6 5.727 7.171 4.222 9 4.222C10.829 4.222 12 5.727 12 7.556V16.444"
			stroke="black"
			stroke-width="2"
			stroke-linecap="round"
			stroke-linejoin="round"
		/>
		<path
			fill-rule="evenodd"
			clip-rule="evenodd"
			d="M7 15L6 13L5 15H7Z"
			stroke="black"
			stroke-width="2"
			stroke-miterlimit="1.5"
			stroke-linecap="round"
			stroke-linejoin="round"
		/>
		<path
			d="M20.222 4.444C20.222 3.218 19.226 2.222 18 2.222C16.774 2.222 15.778 3.218 15.778 4.444V7.778C15.778 9.004 16.774 10 18 10V16.667C18 18.495 16.829 20 15 20C13.171 20 12 18.495 12 16.667V7.778"
			stroke="black"
			stroke-width="2"
			stroke-linecap="round"
			stroke-linejoin="round"
		/>
		<path
			fill-rule="evenodd"
			clip-rule="evenodd"
			d="M17 9.222L18 11.222L19 9.222H17Z"
			stroke="black"
			stroke-width="2"
			stroke-miterlimit="1.5"
			stroke-linecap="round"
			stroke-linejoin="round"
		/>
	</g>
	<defs>
		<clipPath id="clip0_102_2">
			<rect
				width="24"
				height="24"
				fill="white"
			/>
		</clipPath>
	</defs>
</svg>