<svg
	width="24"
	height="24"
	viewBox="0 0 24 24"
	fill="none"
	xmlns="http://www.w3.org/2000/svg"
>
	<g clip-path="url(#clip0_100_3)">
		<path
			d="M21.3022 9.9787L13.8798 2.38378C13.481 1.97629 12.978 1.55146 11.634 2.47048C9.9085 3.6496 10.9057 4.36921 11.1831 4.67266C11.8942 5.45296 18.4755 12.389 19.6114 13.6895C19.8281 13.9322 17.8511 11.7387 19.0477 10.2475C19.516 9.64057 20.6085 9.20707 21.3022 9.98737C21.8658 10.6203 22.23 11.548 21.0074 12.5624C18.8656 14.331 12.163 19.7064 9.99521 21.4925C8.91134 22.3855 7.52398 21.6919 6.891 20.9723C6.24067 20.2006 4.23767 17.9724 2.44277 15.9263C1.96587 15.3801 2.08726 14.227 2.64221 13.7588C5.67706 11.1318 10.6109 7.36036 12.3451 5.88646"
			stroke="#DBD0B4"
			stroke-width="1.99422"
			stroke-linecap="round"
			stroke-linejoin="round"
		/>
	</g>
	<defs>
		<clipPath id="clip0_100_3">
			<rect
				width="24"
				height="24"
				fill="white"
			/>
		</clipPath>
	</defs>
</svg>