<svg
	width="24"
	height="24"
	viewBox="0 0 24 24"
	fill="none"
	xmlns="http://www.w3.org/2000/svg"
>
	<g clip-path="url(#clip0_100_11)">
		<path
			d="M12 19.2V21.2"
			stroke="#D7742F"
			stroke-width="2"
			stroke-linecap="round"
			stroke-linejoin="round"
		/>
		<path
			d="M8.4 1.3C8.9 2.8 9.1 4.3 8.5 5.9C8.3 6.4 7.6 7.4 6.9 7.4M15.6 1.3C15.1 2.8 14.9 4.3 15.5 5.9C15.7 6.5 16.4 7.4 17.1 7.4"
			stroke="#D7742F"
			stroke-width="2"
			stroke-linecap="round"
			stroke-linejoin="round"
		/>
		<path
			d="M3.6 15.8H1.9M20.4 15.8H22.1"
			stroke="#D7742F"
			stroke-width="2"
			stroke-linecap="round"
			stroke-linejoin="round"
		/>
		<path
			d="M3.2 12.1H1.5M20.8 12.1H22.6"
			stroke="#D7742F"
			stroke-width="2"
			stroke-linecap="round"
			stroke-linejoin="round"
		/>
		<path
			d="M8.1 12.7V14.3M15.9 12.7V14.3"
			stroke="#D7742F"
			stroke-width="2"
			stroke-linecap="round"
			stroke-linejoin="round"
		/>
		<path
			d="M10.8 18H12ZM12 19.2L10.8 18ZM13.2 18H12ZM12 19.2L13.2 18Z"
			stroke="#D7742F"
			stroke-width="2"
			stroke-linecap="round"
			stroke-linejoin="round"
		/>
		<path
			d="M4 9.7C3.5 10.9 3.2 12.1 3.2 13.4C3.2 16.5 6.1 19.7 8.5 21.6C9.4 22.3 10.7 22.7 11.9 22.7M8.8 5.6C9.9 5.1 10.9 4.9 12 4.9C13.1 4.9 14.1 5.1 15.2 5.6M20 9.7C20.5 10.9 20.8 12.1 20.8 13.4C20.8 16.5 17.9 19.7 15.5 21.6C14.6 22.3 13.3 22.7 12.1 22.7"
			stroke="#D7742F"
			stroke-width="2"
			stroke-linecap="round"
			stroke-linejoin="round"
		/>
		<path
			d="M4 9.7C3.8 7.9 3.7 6 4.5 4.2C5.3 2.4 6.7 1.6 8.4 1.2M20 9.7C20.2 7.8 20.3 6 19.5 4.2C18.7 2.4 17.3 1.6 15.6 1.2"
			stroke="#D7742F"
			stroke-width="2"
			stroke-linecap="round"
			stroke-linejoin="round"
		/>
		<path
			d="M9.6 21.6L12 21.2L14.4 21.6"
			stroke="#D7742F"
			stroke-width="2"
			stroke-linecap="round"
			stroke-linejoin="round"
		/>
	</g>
	<defs>
		<clipPath id="clip0_100_11">
			<rect
				width="24"
				height="24"
				fill="white"
			/>
		</clipPath>
	</defs>
</svg>