<svg
	width="24"
	height="24"
	viewBox="0 0 24 24"
	fill="none"
	xmlns="http://www.w3.org/2000/svg"
>
	<path
		d="M14.793 17.295V7.955C14.7935 7.62364 14.9254 7.30601 15.1597 7.0717C15.394 6.83739 15.7116 6.70553 16.043 6.705H19.344M18.007 10.997H14.793M10.985 9.205C10.985 7.825 9.864 6.705 8.485 6.705H7.156C6.49296 6.705 5.85707 6.96839 5.38823 7.43723C4.91939 7.90607 4.656 8.54196 4.656 9.205V14.795C4.656 15.1233 4.72066 15.4484 4.8463 15.7517C4.97194 16.055 5.15608 16.3306 5.38823 16.5628C5.62038 16.7949 5.89598 16.9791 6.19929 17.1047C6.5026 17.2303 6.82769 17.295 7.156 17.295H8.485C9.864 17.295 10.985 16.175 10.985 14.795V9.205Z"
		stroke="#FFC626"
		stroke-width="2"
	/>
</svg>