<svg
	width="24"
	height="24"
	viewBox="0 0 24 24"
	fill="none"
	xmlns="http://www.w3.org/2000/svg"
>
	<path
		d="M7.99999 7H7.98999"
		stroke="black"
		stroke-width="2"
		stroke-linecap="round"
		stroke-linejoin="round"
	/>
	<path
		d="M20.6 18H12C9.87828 18 7.84345 17.1572 6.34316 15.6569C4.84286 14.1566 4.00001 12.1217 4.00001 10V7.00001C3.99776 6.14792 4.26767 5.31737 4.77041 4.6294C5.27316 3.94142 5.98246 3.43197 6.79497 3.17527C7.60748 2.91857 8.48073 2.92804 9.28747 3.2023C10.0942 3.47657 10.7923 4.00129 11.28 4.70001L22 20"
		stroke="black"
		stroke-width="2"
		stroke-linecap="round"
		stroke-linejoin="round"
	/>
	<path
		d="M4 7L2 7.5L4 8"
		stroke="black"
		stroke-width="2"
		stroke-linecap="round"
		stroke-linejoin="round"
	/>
	<path
		d="M14 18V21"
		stroke="black"
		stroke-width="2"
		stroke-linecap="round"
		stroke-linejoin="round"
	/>
	<path
		d="M10 17.75V21"
		stroke="black"
		stroke-width="2"
		stroke-linecap="round"
		stroke-linejoin="round"
	/>
	<path
		d="M17 18C15.7669 18 14.5637 17.62 13.5543 16.9117C12.5448 16.2035 11.7781 15.2014 11.3584 14.0419C10.9388 12.8824 10.8866 11.6218 11.2089 10.4315C11.5313 9.24128 12.2126 8.17927 13.16 7.39001"
		stroke="black"
		stroke-width="2"
		stroke-linecap="round"
		stroke-linejoin="round"
	/>
</svg>