<svg
	width="28"
	height="24"
	viewBox="0 0 28 24"
	fill="none"
	xmlns="http://www.w3.org/2000/svg"
>
	<g clip-path="url(#clip0_100_127)">
		<path
			d="M12.4398 2.28169L14.7169 1.01408L17.0361 2.28169H22.6446V5.11268L16.488 5.03561V8.88068L18.6807 8.87324V11.5352H17.6265V12.8451L18.9759 14.662H21.9277V12.8451H24.9217V14.662H26.988V19.3521H24.9217V20.7887H21.9277V18.507H18.9759L14.2952 19.7324L8.60241 18.507L7.33735 19.7324L8.85542 20.7887L8.60241 22.8592L5.10241 22.9859L1.01205 21.338L1.51807 19.7324L3.58434 19.3521L4.93373 15.8873L11.5964 12.8451L11.006 11.5352V8.87324H12.988V5.02817H6.78916V2.28169H12.4398Z"
			stroke="#ED8106"
			stroke-width="2"
			stroke-linejoin="round"
		/>
	</g>
	<defs>
		<clipPath id="clip0_100_127">
			<rect
				width="28"
				height="24"
				fill="white"
			/>
		</clipPath>
	</defs>
</svg>