<svg
	width="21"
	height="24"
	viewBox="0 0 21 24"
	fill="none"
	xmlns="http://www.w3.org/2000/svg"
>
	<g clip-path="url(#clip0_100_130)">
		<path
			d="M6.60552 2.72204C6.17087 1.66574 5.11381 0.920128 3.87873 0.920128C2.25586 0.920128 0.9403 2.20746 0.9403 3.79553C0.9403 5.38359 2.25586 6.67093 3.87873 6.67093C5.50161 6.67093 6.81717 5.38359 6.81717 3.79553C6.81717 3.41605 6.74202 3.05375 6.60552 2.72204ZM6.60552 2.72204L10.1082 2.07029L12.3022 7.05431M12.3022 7.05431L4.54478 8.58786L3.13433 12.23L4.34888 15.0671L2.38993 17.5591V23.0799H19.8246L20.0205 17.5591L17.3955 8.58786L12.3022 7.05431ZM7.60075 12.0383V13.1885M14.9664 12.1534V13.1885M9.67724 16.639H13.2817L12.3022 20.5112H11.166L9.67724 16.639Z"
			stroke="#F7CF0D"
			stroke-width="2"
			stroke-linecap="round"
			stroke-linejoin="round"
		/>
	</g>
	<defs>
		<clipPath id="clip0_100_130">
			<rect
				width="21"
				height="24"
				fill="white"
			/>
		</clipPath>
	</defs>
</svg>