<svg
	width="24"
	height="24"
	viewBox="0 0 24 24"
	fill="none"
	xmlns="http://www.w3.org/2000/svg"
>
	<path
		d="M11.34 11.1624L8.74416 7.62048C8.67997 7.53281 8.59203 7.46535 8.49073 7.42605C8.38943 7.38676 8.279 7.37727 8.17248 7.39872L4.032 8.23536C3.95143 8.25192 3.87539 8.28572 3.80911 8.33444C3.74282 8.38316 3.68787 8.44564 3.648 8.5176L1.60128 12.217C1.54856 12.312 1.52421 12.4202 1.5311 12.5287C1.53799 12.6371 1.57584 12.7413 1.64016 12.829L4.24224 16.381C4.30644 16.4686 4.39437 16.5361 4.49568 16.5754C4.59698 16.6147 4.70741 16.6242 4.81392 16.6027L8.94192 15.769C9.02258 15.7524 9.09868 15.7186 9.16498 15.6698C9.23128 15.621 9.28619 15.5583 9.32592 15.4862L11.3794 11.7758C11.4322 11.6805 11.4566 11.5721 11.4496 11.4634C11.4426 11.3546 11.4046 11.2502 11.34 11.1624ZM8.4864 14.7245C8.43773 14.7602 8.38248 14.7861 8.32382 14.8005C8.26516 14.8148 8.20424 14.8175 8.14454 14.8083C8.08484 14.7992 8.02754 14.7783 7.97591 14.7469C7.92429 14.7156 7.87935 14.6743 7.84368 14.6256L6.35568 12.5981C6.2692 12.4806 6.15104 12.3901 6.01503 12.3374C5.87902 12.2846 5.73079 12.2716 5.58768 12.3L3.06384 12.8102C3.00465 12.8222 2.94369 12.8224 2.88442 12.8108C2.82515 12.7993 2.76874 12.7761 2.71842 12.7427C2.6681 12.7093 2.62485 12.6664 2.59113 12.6163C2.55742 12.5662 2.5339 12.5099 2.52192 12.4507C2.4977 12.3314 2.52179 12.2073 2.58892 12.1057C2.65605 12.0041 2.76073 11.9333 2.88 11.9088L5.616 11.3558C5.72483 11.3338 5.82758 11.2883 5.91716 11.2227C6.00674 11.1571 6.08102 11.0728 6.13488 10.9757L7.50816 8.496C7.56716 8.38951 7.66598 8.31075 7.78296 8.27701C7.89993 8.24327 8.02551 8.25729 8.13216 8.316C8.23866 8.375 8.31741 8.47382 8.35115 8.59079C8.3849 8.70777 8.37088 8.83335 8.31216 8.94L7.04688 11.232C6.9763 11.36 6.94373 11.5056 6.953 11.6515C6.96226 11.7974 7.01299 11.9376 7.0992 12.0557L8.5872 14.0827C8.65881 14.1812 8.68842 14.3041 8.66952 14.4244C8.65062 14.5448 8.58477 14.6527 8.4864 14.7245Z"
		fill="black"
	/>
	<path
		d="M19.9891 11.8051C20.2497 11.8051 20.461 11.5939 20.461 11.3333C20.461 11.0727 20.2497 10.8614 19.9891 10.8614C19.7285 10.8614 19.5173 11.0727 19.5173 11.3333C19.5173 11.5939 19.7285 11.8051 19.9891 11.8051Z"
		fill="black"
	/>
	<path
		d="M21.9979 12.7488H13.465C13.3398 12.7488 13.2198 12.6991 13.1313 12.6106C13.0428 12.5221 12.9931 12.4021 12.9931 12.277C12.9931 12.1518 13.0428 12.0318 13.1313 11.9433C13.2198 11.8548 13.3398 11.8051 13.465 11.8051H18.5635C18.6861 11.8012 18.8024 11.7498 18.8877 11.6617C18.9731 11.5736 19.0208 11.4557 19.0208 11.333C19.0208 11.2104 18.9731 11.0925 18.8877 11.0044C18.8024 10.9163 18.6861 10.8649 18.5635 10.861H15.1939C15.0688 10.861 14.9488 10.8112 14.8603 10.7228C14.7718 10.6343 14.7221 10.5143 14.7221 10.3891C14.7221 10.264 14.7718 10.144 14.8603 10.0555C14.9488 9.96699 15.0688 9.91728 15.1939 9.91728H20.2992C20.4218 9.91337 20.5381 9.86192 20.6234 9.77382C20.7087 9.68571 20.7565 9.56786 20.7565 9.4452C20.7565 9.32254 20.7087 9.20469 20.6234 9.11659C20.5381 9.02848 20.4218 8.97703 20.2992 8.97312H9.73584L11.34 11.1624C11.4042 11.2501 11.442 11.3543 11.4489 11.4627C11.4558 11.5712 11.4315 11.6793 11.3789 11.7744L9.32544 15.4848C9.30643 15.519 9.28391 15.5512 9.25824 15.5808H19.4482C19.5733 15.5808 19.6933 15.5311 19.7818 15.4426C19.8703 15.3541 19.92 15.2341 19.92 15.109C19.92 14.9838 19.8703 14.8638 19.7818 14.7753C19.6933 14.6868 19.5733 14.6371 19.4482 14.6371H16.8787C16.8155 14.6391 16.7524 14.6284 16.6934 14.6056C16.6344 14.5828 16.5805 14.5483 16.535 14.5043C16.4896 14.4603 16.4534 14.4075 16.4288 14.3493C16.4041 14.291 16.3913 14.2283 16.3913 14.165C16.3913 14.1017 16.4041 14.0391 16.4288 13.9808C16.4534 13.9225 16.4896 13.8698 16.535 13.8258C16.5805 13.7817 16.6344 13.7473 16.6934 13.7245C16.7524 13.7017 16.8155 13.6909 16.8787 13.693H21.9979C22.0612 13.695 22.1242 13.6843 22.1832 13.6614C22.2423 13.6386 22.2961 13.6042 22.3416 13.5601C22.3871 13.5161 22.4232 13.4634 22.4479 13.4051C22.4726 13.3468 22.4853 13.2842 22.4853 13.2209C22.4853 13.1576 22.4726 13.0949 22.4479 13.0367C22.4232 12.9784 22.3871 12.9257 22.3416 12.8816C22.2961 12.8376 22.2423 12.8031 22.1832 12.7803C22.1242 12.7575 22.0612 12.7468 21.9979 12.7488Z"
		fill="black"
	/>
</svg>