<svg xmlns="http://www.w3.org/2000/svg" fill-rule="evenodd" clip-rule="evenodd" stroke-linecap="round" stroke-linejoin="round" viewBox="0 0 24 24" height="24" width="24">
	<path d="M3.778 19.778C3.778 21.004 4.774 22 6 22a2.224 2.224 0 0 0 2.222-2.222v-3.334A2.224 2.224 0 0 0 6 14.222V7.556c0-1.829 1.171-3.334 3-3.334s3 1.505 3 3.334v8.888" fill="none" fill-rule="nonzero" stroke-width="2px" stroke="#d2c080"></path>
	<path d="m7 15-1-2-1 2z" fill="none" stroke-width="2px" stroke-miterlimit="1.5" stroke="#d2c080"></path>
	<path d="M20.222 4.444A2.224 2.224 0 0 0 18 2.222a2.224 2.224 0 0 0-2.222 2.222v3.334C15.778 9.004 16.774 10 18 10v6.667C18 18.495 16.829 20 15 20s-3-1.505-3-3.333V7.778" fill="none" fill-rule="nonzero" stroke-width="2px" stroke="#d2c080"></path>
	<path d="m17 9.222 1 2 1-2z" fill="none" stroke-width="2px" stroke-miterlimit="1.5" stroke="#d2c080"></path>
</svg>